<?xml version="1.0" encoding="UTF-8" standalone="no"?>
<!-- Created with Inkscape (http://www.inkscape.org/) -->

<svg
   version="1.0"
   width="280.28375"
   height="283.75751"
   id="svg3511"
   sodipodi:docname="alcool-grossesse.svg"
   inkscape:version="1.2.2 (b0a8486541, 2022-12-01)"
   xmlns:inkscape="http://www.inkscape.org/namespaces/inkscape"
   xmlns:sodipodi="http://sodipodi.sourceforge.net/DTD/sodipodi-0.dtd"
   xmlns="http://www.w3.org/2000/svg"
   xmlns:svg="http://www.w3.org/2000/svg">
  <sodipodi:namedview
     id="namedview2383"
     pagecolor="#ffffff"
     bordercolor="#666666"
     borderopacity="1.0"
     inkscape:showpageshadow="2"
     inkscape:pageopacity="0.0"
     inkscape:pagecheckerboard="0"
     inkscape:deskcolor="#d1d1d1"
     showgrid="false"
     inkscape:zoom="1.6563438"
     inkscape:cx="35.016885"
     inkscape:cy="153.95355"
     inkscape:window-width="1312"
     inkscape:window-height="699"
     inkscape:window-x="0"
     inkscape:window-y="0"
     inkscape:window-maximized="1"
     inkscape:current-layer="svg3511" />
  <defs
     id="defs" />
  <path
     d="m 271.22595,142.33615 a 130.81475,128.28939 0 1 1 -261.629492,0 130.81475,128.28939 0 1 1 261.629492,0 z"
     id="fond"
     style="fill:#ffffff;fill-opacity:1;stroke-width:4.94307;stroke-miterlimit:4;stroke-dasharray:none;stroke:none" />
  <g
     id="femme-enceinte"
     style="fill:#212529;stroke:none">
    <path
       id="gobelet"
       clip-path="url(#clipPath3038)"
       style="color:#000000;fill:#000000;-inkscape-stroke:none;stroke:none"
       d="m 192.17188,58.613281 c -0.22829,0.0059 -0.46173,0.04651 -0.71094,0.109375 -0.66456,0.167634 -1.4488,0.504093 -2.35156,0.982422 -1.80555,0.956661 -4.06658,2.483123 -6.40235,4.373047 v 0.002 c -2.33326,1.890441 -4.29566,3.783934 -5.60547,5.351563 -0.6549,0.783813 -1.1477,1.479445 -1.44922,2.095703 -0.15075,0.308126 -0.25718,0.597229 -0.29492,0.898437 -0.0377,0.301211 0.005,0.655403 0.23047,0.933594 0.22561,0.278324 0.565,0.393042 0.86719,0.417969 0.14595,0.01204 0.29187,0.0072 0.4414,-0.0098 l 21.05274,20.494141 9.9082,-8.025391 0.0879,0.107422 -14.57617,-25.878906 c 0.0596,-0.1641 0.10399,-0.327172 0.125,-0.494141 0.0378,-0.300207 -0.008,-0.653964 -0.23242,-0.931641 -0.22487,-0.278176 -0.5617,-0.394766 -0.86328,-0.419921 -0.0755,-0.0063 -0.15048,-0.0078 -0.22656,-0.0059 z m 0.0176,0.617188 c 0.27744,-0.0083 0.47987,0.05387 0.59375,0.195312 0.73387,0.903124 -2.41038,4.667238 -7.03125,8.41211 -4.61674,3.736746 -8.95071,6.036936 -9.68359,5.132812 -0.73512,-0.908249 2.4116,-4.672363 7.02734,-8.412109 3.89887,-3.154673 7.59557,-5.283377 9.09375,-5.328125 z" />
    <path
       id="femme"
       clip-path="url(#clipPath2608)"
       style="fill:#000000;fill-opacity:1;fill-rule:nonzero;stroke:none;stroke-width:1.25"
       d="M 135.66602 26.347656 C 131.61628 26.246567 127.21259 26.649251 122.89062 27.683594 C 113.39763 29.955091 111.26367 43.205078 111.26367 43.205078 C 108.12143 40.062956 92.100309 42.040412 89.070312 63.697266 C 88.409938 68.855385 90.294306 91.878255 99.279297 102.35938 C 101.50654 104.95887 102.99631 106.31421 103.94531 106.96484 C 103.64431 107.21234 103.32491 107.63981 103.01953 108.35156 C 100.77841 113.59231 94.067242 121.57947 86.1875 131.77734 C 73.621638 148.0392 71.402344 158.53516 71.402344 158.53516 C 71.402344 158.53516 70.958829 159.86478 71.845703 160.45703 C 72.732577 161.04816 74.406257 164.16279 81.234375 168.12891 C 85.96487 171.53003 92.691574 174.39165 103.77344 178.19727 C 110.10505 180.37114 124.66488 180.39912 125.48438 187.72461 C 126.94825 200.81573 115.34304 208.16881 112.8418 219.5918 C 109.7598 233.66203 119.49624 250.62381 123.24023 255.86719 C 124.92511 258.22344 124.94217 263.00665 124.45117 267.55664 L 162.68555 268.02148 L 192.19141 262.6582 C 186.84278 250.96934 178.83398 238.60156 178.83398 238.60156 C 224.92731 214.18322 205.55917 181.9246 189.39844 165.46875 C 186.50106 161.33787 184.24414 158.59375 184.24414 158.59375 C 184.24414 158.59375 186.13063 159.53743 188.01562 160.16406 C 189.90387 160.80006 192.7268 161.2679 195.4043 161.89453 C 198.07754 162.52528 199.3278 162.47886 200.9043 161.38086 C 202.47655 160.27786 203.09833 157.80324 203.58008 155.29688 C 203.87721 153.75275 206.56619 146.01827 207.66406 141.30664 C 208.76706 136.58665 210.65355 125.89432 211.43555 120.54883 C 212.22167 115.20646 211.91342 107.81799 213.16992 98.703125 C 214.43042 89.580134 211.12666 85.333327 211.28516 84.392578 C 211.43629 83.447704 210.02287 80.618859 208.92188 80.146484 C 207.824 79.67611 206.88086 80.619141 206.88086 80.619141 C 206.88086 80.619141 206.56652 79.200297 204.99414 78.888672 C 203.42402 78.576172 202.79227 79.360343 202.47852 78.261719 C 202.16265 77.157095 200.28016 77.007563 199.01953 77.632812 C 197.76316 78.261937 198.07743 80.93367 197.13281 78.732422 C 196.19031 76.532174 194.30318 76.5315 192.57031 76.21875 C 190.84993 75.90325 191.31836 89.419922 191.31836 89.419922 C 191.31836 89.419922 191.38891 93.042158 193.05078 94.925781 C 194.30816 96.34928 195.93738 96.713674 198.39062 99.013672 C 200.20687 100.71717 200.20587 101.75425 200.59375 104.51562 C 201.03062 107.63112 198.54913 114.26025 197.60352 120.86523 C 196.66102 127.46611 189.43164 138.00195 189.43164 138.00195 C 189.43164 138.00195 187.5472 136.58571 185.9707 135.01758 C 184.39845 133.44533 171.35155 122.75272 169.7793 121.18359 C 168.20917 119.60711 160.81933 110.64824 157.83008 108.13086 C 154.84708 105.61599 148.2168 103.47852 148.2168 103.47852 C 145.55393 101.81489 143.72591 94.82212 144.72266 90 C 145.72041 85.171755 151.08507 83.683984 154.35156 83.552734 C 160.88881 83.288985 162.10422 81.926921 162.33984 80.966797 C 162.58384 80.004548 161.86328 75.4375 161.86328 75.4375 C 161.86328 75.4375 163.48491 75.021734 163.72266 74.537109 C 163.96766 74.058485 163.66903 72.614656 162.94336 72.316406 C 162.22911 72.018032 161.80114 71.413078 162.22852 71.533203 C 162.64139 71.653328 163.72275 70.57225 163.90625 70.09375 C 164.08563 69.611125 162.8868 69.372109 162.76367 68.771484 C 162.64167 68.172735 164.18945 67.3125 164.18945 67.3125 C 165.18932 66.9785 167.19711 66.640608 167.53711 65.302734 C 167.87274 63.964861 166.5292 62.624217 165.18945 60.949219 C 163.84858 59.271345 161.50688 55.92217 161.84375 53.576172 C 162.17738 51.236424 161.84467 45.207463 158.82617 39.511719 C 156.11742 35.358473 155.39089 34.322262 150.94727 30.478516 C 148.18235 28.087112 142.41558 26.516138 135.66602 26.347656 z M 109.74219 49.15625 L 110.88477 49.363281 C 110.88477 49.363281 109.07154 56.491582 110.31641 60.330078 C 108.75979 58.04733 108.70444 51.957247 109.74219 49.15625 z M 112.46875 68.1875 C 113.355 73.06662 120.51758 75.978516 120.51758 75.978516 C 120.51758 75.978516 122.36108 77.565158 122.62695 79.410156 C 122.88958 81.257154 121.83207 86.799564 120.7832 88.382812 C 119.72707 89.965061 117.87695 90.498047 117.87695 90.498047 C 118.87158 88.371924 116.12771 82.932277 114.62109 78.519531 C 113.86722 75.828409 112.46875 68.1875 112.46875 68.1875 z M 111.26367 141.30078 C 111.26367 141.30078 114.256 144.29586 115.75 147.28711 C 117.24938 150.28461 120.24551 155.52269 120.99414 158.52344 C 121.74801 161.51568 122.49414 166.75781 122.49414 166.75781 C 123.2219 170.13906 122.84924 169.91983 115.75 164.51172 C 109.68514 158.51359 99.343888 155.28612 96.978516 154.54688 C 96.978516 154.54688 108.26304 145.03865 111.26367 141.30078 z " />
    <path
       d="m 121.71238,181.3675 c 0.71737,2.0155 3.49912,9.76012 1.9195,17.46187 l 3.20399,-3.35087 1.13751,-9.08025 -2.86413,-6.29225 -3.48238,0.94462"
       id="hanches"
       style="fill:#000000;fill-opacity:1;fill-rule:nonzero;stroke:none;stroke-width:1.25"
       clip-path="url(#clipPath2568)" />
  </g>
  <path
     id="interdiction"
     style="fill:#dc3545;fill-opacity:1;fill-rule:nonzero;stroke:#dc3545;stroke-width:10;stroke-opacity:1;stroke-dasharray:none"
     d="M 140.12891 6.3671875 C 65.290106 6.3671875 4.6269531 67.030439 4.6269531 141.86523 C 4.6269531 216.69854 65.290106 277.36328 140.12891 277.36328 C 214.96221 277.36328 275.625 216.69854 275.625 141.86523 C 275.625 67.030439 214.9622 6.3671875 140.12891 6.3671875 z M 140.12891 20.435547 C 207.08109 20.435547 261.55273 74.909306 261.55273 141.86523 C 261.55273 185.96122 237.9202 224.63491 202.66211 245.9082 L 69.759766 42.998047 C 89.628304 28.81603 113.91151 20.435547 140.12891 20.435547 z M 56.753906 53.707031 L 187.66797 253.58984 C 173.05894 259.83058 156.99244 263.29492 140.12891 263.29492 C 73.170848 263.29492 18.697266 208.82043 18.697266 141.86523 C 18.697266 107.1725 33.346012 75.856044 56.753906 53.707031 z " />
</svg>
